<svg xmlns="http://www.w3.org/2000/svg" viewBox="0 0 710.78 145.9"><defs><style>.cls-1{fill:#d6525f;}</style></defs><title>logo_talloen_rood</title><g id="Laag_2" data-name="Laag 2"><g id="Layer_1" data-name="Layer 1"><path class="cls-1" d="M268.42,68.2V39c0-7.39.17-14.79.5-22.1h-.16c-1.68,7.23-3.7,14.62-5.72,21.77L254.55,68.2H237.32l-8.48-29.58c-2-7.15-4-14.54-5.72-21.77H223c.34,7.31.51,14.71.51,22.1V68.2h-13.7V8.36H233l7.65,26.56c2,7.31,3.78,14.71,5.21,22h.16c1.35-7.31,3.11-14.71,5.13-22l7.73-26.56h23.2V68.2Z"/><path class="cls-1" d="M316.07,55.51,312.21,68.2h-15.3L317.33,8.36h19.08L356.84,68.2h-15.3l-3.78-12.69Zm16.9-16c-2.19-7.14-4.29-14.54-6.05-21.77h-.17C325,25,323,32.4,320.86,39.54l-1.17,4h14.54Z"/><path class="cls-1" d="M393.22,20.72V68.2H378.68V20.72H360.36V8.36h51.18V20.72Z"/><path class="cls-1" d="M456.88,20.72V68.2H442.34V20.72H424V8.36H475.2V20.72Z"/><path class="cls-1" d="M526.85,68.2V43.41h-22.1V68.2H490.21V8.36h14.54V31.05h22.1V8.36h14.54V68.2Z"/><path class="cls-1" d="M562.05,68.2V8.36h14.54V68.2Z"/><path class="cls-1" d="M610.31,55.51,606.45,68.2h-15.3L611.58,8.36h19.07L651.08,68.2h-15.3L632,55.51Zm16.9-16C625,32.4,622.92,25,621.16,17.77H621c-1.77,7.23-3.78,14.63-5.89,21.77l-1.17,4h14.54Z"/><path class="cls-1" d="M709.18,26.6H694.05c0-5.3-3.11-8.32-8.91-8.32-4.79,0-7.9,2.27-7.9,5.63,0,3.95,3.2,5.21,11.94,7.39,11.51,2.86,21.6,6,21.6,19.08,0,11.69-9.59,19.17-24.46,19.17-15.55,0-25.05-7.48-25.05-20.85h15.47c0,6.14,3.28,9.25,9.91,9.25,5.47,0,8.83-2.44,8.83-6.31,0-4.53-3.45-5.46-11.43-7.56-11.43-2.94-21.77-5.88-21.77-18.83C662.28,14.33,671.36,7,685.73,7,700.77,7,709.18,13.74,709.18,26.6Z"/><path class="cls-1" d="M242,96.35v47.49H227.49V96.35H209.17V84h51.18V96.35Z"/><path class="cls-1" d="M283.05,131.14l-3.87,12.7H263.89L284.31,84h19.08l20.42,59.85h-15.3l-3.78-12.7Zm16.89-16c-2.18-7.15-4.29-14.54-6.05-21.77h-.17c-1.76,7.23-3.78,14.62-5.88,21.77l-1.18,4H301.2Z"/><path class="cls-1" d="M380.16,131.48v12.36h-41.6V84H353.1v47.49Z"/><path class="cls-1" d="M436.77,131.48v12.36h-41.6V84h14.54v47.49Z"/><path class="cls-1" d="M506.15,113.92c0,19.24-11.09,31.26-28.91,31.26s-29-12-29-31.26,11.09-31.27,29-31.27S506.15,94.67,506.15,113.92Zm-42.69,0c0,11.76,5,18.65,13.78,18.65s13.7-6.89,13.7-18.65-5-18.66-13.7-18.66S463.46,102.15,463.46,113.92Z"/><path class="cls-1" d="M538.32,96.18v11.35H564.2v12H538.32v12.1h28.41v12.19h-43V84h42.27V96.18Z"/><path class="cls-1" d="M619.13,143.84l-10.42-23.62c-3.45-7.73-6.81-15.89-9.75-24h-.17c.42,8.4.67,16.8.67,25.21v22.36h-14V84h20.93l10.5,23.62c3.37,7.73,6.73,15.89,9.75,24h.17c-.5-8.4-.67-16.8-.67-25.21V84h13.95v59.85Z"/><polygon class="cls-1" points="71.2 0 49.17 18.95 71.2 18.95 71.2 33.24 32.55 33.24 16.43 47.11 71.2 47.11 71.2 61.41 0 61.41 0 75.27 71.2 75.27 71.2 89.57 0 89.57 0 103.44 71.2 103.44 71.2 117.73 0 117.73 0 131.6 71.2 131.6 71.2 145.9 142.39 145.9 142.39 61.25 71.2 0"/></g></g></svg>