<?xml version="1.0" encoding="utf-8"?>
<!-- Generator: Adobe Illustrator 23.0.2, SVG Export Plug-In . SVG Version: 6.00 Build 0)  -->
<svg version="1.1" id="Layer_1" xmlns="http://www.w3.org/2000/svg" xmlns:xlink="http://www.w3.org/1999/xlink" x="0px" y="0px"
	 viewBox="0 0 139 40" style="enable-background:new 0 0 139 40;" xml:space="preserve">
<style type="text/css">
	.st0{clip-path:url(#SVGID_2_);}
	.st1{fill:#98B227;}
	.st2{fill:#459734;}
	.st3{fill:#6DA42F;}
	.st4{fill:#2D9036;}
	.st5{fill:#257F34;}
	.st6{fill:#288435;}
	.st7{fill:#2B8D36;}
	.st8{fill:#569C33;}
	.st9{fill:#FFFFFF;}
	.st10{fill:#B9BABC;}
	.st11{fill:#030504;}
	.st12{fill:#227E3C;}
</style>
<g id="Group_30" transform="translate(-431.204 -784.186)">
	<g>
		<g>
			<defs>
				<rect id="SVGID_1_" x="862.5" y="1568.7" width="138.9" height="39.4"/>
			</defs>
			<clipPath id="SVGID_2_">
				<use xlink:href="#SVGID_1_"  style="overflow:visible;"/>
			</clipPath>
			<g id="Group_30-2" transform="translate(431.204 784.186)" class="st0">
				<path id="Path_87" class="st1" d="M130.4,0.4c0,0,8.5-0.1,8.5,8.5v22.3c0,0,0,8.5-8.5,8.5H8.6c0,0-8.5,0-8.5-8.5V8.9
					c0,0,0-8.5,8.5-8.5C8.6,0.4,130.4,0.4,130.4,0.4z"/>
				<path id="Path_88" class="st2" d="M104.3,0.4H76c8.8,10.4,14.6,26,16.1,39.3h23c6.1-7,10.4-15.2,12.8-24.2
					C121.3,8.7,113.2,3.5,104.3,0.4"/>
				<path id="Path_89" class="st3" d="M104.3,0.4c8.9,3.1,17,8.3,23.5,15.2c1.2-5,2.1-10,2.4-15.2C130.2,0.4,104.3,0.4,104.3,0.4z"
					/>
				<path id="Path_90" class="st4" d="M14.5,0.4c0,9.7,2.3,19.2,6.8,27.8c-9-0.3-14.7-3.7-21.2-9.1V8.9c0,0,0-8.5,8.5-8.5L14.5,0.4
					L14.5,0.4z"/>
				<path id="Path_91" class="st5" d="M65.8,0.4h-7.6c-8,5-14.8,16.6-19.8,24.5c-2.9,4.6-5.2,9.6-6.7,14.8h39.5
					c0.4-2.8,0.6-5.6,0.6-8.4C71.7,22,69.6,9.1,65.8,0.4"/>
				<path id="Path_92" class="st6" d="M39.4,23.2C44.3,15.4,50.7,5,58.2,0.4H14.5v0.1c0,9.6,2.3,19.1,6.8,27.7c0.5,0,0.9,0,1.4,0
					c5.4,0,10.7-1.1,15.7-3.2C38.7,24.4,39.1,23.8,39.4,23.2"/>
				<path id="Path_93" class="st7" d="M92.1,39.7c-1.5-13.3-7.3-29-16.1-39.3H65.8c3.8,8.8,5.9,21.6,5.9,30.9c0,2.8-0.2,5.6-0.6,8.4
					H92.1z"/>
				<path id="Path_94" class="st8" d="M28.5,39.7H8.6c0,0-8.5,0-8.5-8.5V19.1c6.5,5.4,12.1,8.7,21.2,9.1
					C23.4,32.4,25.4,36.1,28.5,39.7"/>
				<path id="Path_95" class="st7" d="M22.7,28.2c-0.5,0-0.9,0-1.4,0c0.3,0.5,0.5,1,0.7,1.5l0,0c1.7,3.6,3.9,7,6.5,10.1h3.2
					c1.6-5.2,3.8-10.2,6.7-14.8C33.4,27.1,28.1,28.2,22.7,28.2"/>
				<path id="Path_96" class="st3" d="M127.8,15.5c-2.3,8.9-6.7,17.2-12.8,24.2h15.3c8.5,0,8.5-8.5,8.5-8.5v-0.6
					C135,23.6,129.1,17.1,127.8,15.5"/>
				<path id="Rectangle_35" class="st9" d="M8.9,4.9h24.8c1.7,0,3.1,1.4,3.1,3.1l0,0v24c0,1.7-1.4,3.1-3.1,3.1H8.9
					c-1.7,0-3.1-1.4-3.1-3.1l0,0V8C5.7,6.3,7.2,4.9,8.9,4.9L8.9,4.9z"/>
				<path id="Path_97" class="st10" d="M23.6,20.1c0,1.3-1,2.3-2.3,2.3s-2.3-1-2.3-2.3s1-2.3,2.3-2.3l0,0
					C22.6,17.7,23.6,18.8,23.6,20.1"/>
				<path id="Path_98" class="st11" d="M30.7,18.3v-3.6h-3.6v-3.6h-3.6V7.5H20v7.2h3.6v3.6h3.6v3.6h-3.6V29h3.6v-3.6h3.6v-3.6h3.6
					v-3.6L30.7,18.3z"/>
				<path id="Path_99" class="st12" d="M19.1,25.4v-3.6h-3.6v-3.6h3.6v-7.1h-3.6v3.6h-3.6v3.6H8.4v3.6H12v3.6h3.6V29h3.6v3.6h3.6
					v-7.2L19.1,25.4z"/>
				<path id="Rectangle_36" class="st9" d="M8.9,4.9h24.8c1.7,0,3.1,1.4,3.1,3.1l0,0v24c0,1.7-1.4,3.1-3.1,3.1H8.9
					c-1.7,0-3.1-1.4-3.1-3.1l0,0V8C5.7,6.3,7.2,4.9,8.9,4.9L8.9,4.9z"/>
				<path id="Path_100" class="st10" d="M23.6,20.1c0,1.3-1,2.3-2.3,2.3s-2.3-1-2.3-2.3s1-2.3,2.3-2.3l0,0
					C22.6,17.7,23.6,18.8,23.6,20.1"/>
				<path id="Path_101" class="st11" d="M30.7,18.3v-3.6h-3.6v-3.6h-3.6V7.5H20v7.2h3.6v3.6h3.6v3.6h-3.6V29h3.6v-3.6h3.6v-3.6h3.6
					v-3.6L30.7,18.3z"/>
				<path id="Path_102" class="st12" d="M19.1,25.4v-3.6h-3.6v-3.6h3.6v-7.1h-3.6v3.6h-3.6v3.6H8.4v3.6H12v3.6h3.6V29h3.6v3.6h3.6
					v-7.2L19.1,25.4z"/>
				<path id="Path_103" class="st9" d="M47.4,19.1c-2.5,0-3.7-1.6-3.7-4.9c0-3.5,1.4-5.3,3.9-5.3c1.1,0,2.1,0.6,2.6,1.6l-0.9,0.9
					c-0.3-0.5-0.9-0.9-1.5-0.9c-1.3,0-2.1,1.2-2.1,3.4c0,2.6,0.7,3.6,2,3.6c0.7,0,1.4-0.4,1.8-0.9l0.8,1
					C49.7,18.5,48.6,19.1,47.4,19.1"/>
				<path id="Path_104" class="st9" d="M54.4,12.9c-0.9,0-1.4,0.6-1.4,2.3c0,2.1,0.5,2.6,1.5,2.6c0.9,0,1.4-0.6,1.4-2.3
					C55.9,13.4,55.4,12.9,54.4,12.9 M54.3,19.1c-2,0-3.2-1-3.2-3.7s1.4-4,3.5-4c2,0,3.2,1,3.2,3.7S56.5,19.1,54.3,19.1"/>
				<path id="Path_105" class="st9" d="M65.4,19h-1.9c0-1.5,0-3,0-3.8c0-1.7-0.3-2.1-1-2.1c-0.5,0.1-1,0.3-1.4,0.6V19h-1.9v-7.3h1.5
					l0.1,0.8c0.6-0.6,1.4-0.9,2.2-0.9c1.5,0,2.2,0.9,2.2,3.3C65.4,15.7,65.4,17.3,65.4,19"/>
				<path id="Path_106" class="st9" d="M71,10c-0.3-0.1-0.6-0.2-0.9-0.2c-0.6,0-0.8,0.3-0.8,0.9v0.9h1.3v1.3h-1.3v6h-1.9v-6h-0.9
					v-1.3h0.9v-0.9c0-1.4,0.6-2.3,2-2.3c0.6,0,1.2,0.2,1.8,0.5L71,10z"/>
				<path id="Path_107" class="st9" d="M75.7,14.5c0-1.2-0.4-1.7-1.2-1.7c-0.8,0-1.2,0.7-1.3,1.8L75.7,14.5L75.7,14.5z M73.2,15.7
					L73.2,15.7c0,1.4,0.6,2,1.6,2c0.8,0,1.6-0.2,2.4-0.4l0.3,1.1c-0.9,0.5-2,0.8-3,0.8c-1.9,0-3.2-1-3.2-3.6s1.3-4,3.3-4
					c1.9,0,3.1,1.1,2.9,4.2L73.2,15.7z"/>
				<path id="Path_108" class="st9" d="M83.1,13c-0.3-0.1-0.6-0.1-0.9-0.1c-1,0-1.6,0.8-1.6,2.5c0,1.5,0.5,2.3,1.2,2.3
					c0.5-0.1,0.9-0.3,1.3-0.6V13z M83.5,19l-0.1-0.7c-0.6,0.5-1.3,0.9-2.1,0.9c-1.7,0-2.6-1.6-2.6-3.5c0-3,1.6-4.1,3.6-4.1
					c0.3,0,0.6,0,0.8,0v-3H85V19H83.5z"/>
				<path id="Path_109" class="st9" d="M90.9,14.5c0-1.2-0.4-1.7-1.2-1.7c-0.8,0-1.2,0.7-1.3,1.8L90.9,14.5L90.9,14.5z M88.4,15.7
					L88.4,15.7c0,1.4,0.6,2,1.6,2c0.8,0,1.6-0.2,2.4-0.4l0.3,1.1c-0.9,0.5-2,0.8-3,0.8c-1.9,0-3.2-1-3.2-3.6s1.3-4,3.3-4
					c1.9,0,3.1,1.1,2.9,4.2L88.4,15.7z"/>
				<path id="Path_110" class="st9" d="M98.3,13.3c-0.2-0.1-0.4-0.1-0.6-0.1c-0.4,0-0.8,0.3-1.4,1.1V19h-1.9v-7.3h1.5l0.1,1.1
					c0.7-1,1.2-1.3,1.8-1.3c0.2,0,0.5,0.1,0.7,0.2L98.3,13.3z"/>
				<path id="Path_111" class="st9" d="M103.1,15.6h-0.6c-1.4,0-1.8,0.5-1.8,1.2c-0.1,0.5,0.3,0.9,0.8,1c0.1,0,0.1,0,0.2,0
					c0.5,0,1-0.3,1.4-0.6V15.6z M103.5,19l-0.1-0.7c-0.6,0.6-1.4,0.9-2.2,0.9c-1.5,0-2.3-0.7-2.3-2.1c0-1.5,1.2-2.5,3.8-2.5h0.5V14
					c0-0.7-0.4-1.1-1.4-1.1c-0.8,0-1.5,0.2-2.2,0.4l-0.2-1.1c0.9-0.4,1.9-0.6,3-0.7c1.9,0,2.7,0.9,2.7,2.3V19L103.5,19z"/>
				<path id="Path_112" class="st9" d="M108.8,19.1c-1.4,0-1.9-0.5-1.9-1.9V13H106v-1.3h1c0.2-0.7,0.3-1.3,0.5-2.1h1.4v2.1h1.6V13
					h-1.6v3.8c0,0.7,0.2,1,0.7,1c0.3,0,0.7-0.1,1-0.2l0.1,1.1C110,18.9,109.4,19.1,108.8,19.1"/>
				<path id="Path_113" class="st9" d="M111.9,11.6h1.9V19h-1.9V11.6z M112.8,10.7c-0.9,0-1.1-0.2-1.1-1s0.2-1,1.1-1s1.1,0.2,1.1,1
					C113.9,10.4,113.7,10.7,112.8,10.7"/>
				<path id="Path_114" class="st9" d="M119.7,14.5c0-1.2-0.4-1.7-1.2-1.7s-1.2,0.7-1.3,1.8L119.7,14.5L119.7,14.5z M117.2,15.7
					L117.2,15.7c0,1.4,0.6,2,1.6,2c0.8,0,1.6-0.2,2.4-0.4l0.3,1.1c-0.9,0.5-2,0.8-3,0.8c-1.9,0-3.2-1-3.2-3.6s1.3-4,3.3-4
					c1.9,0,3.1,1.1,2.9,4.2L117.2,15.7z"/>
				<path id="Path_115" class="st9" d="M47,27h-0.9v3c0.3,0,0.7,0.1,1,0.1c1.2,0,1.7-0.7,1.7-1.6C48.9,27.6,48.4,27,47,27 M47.1,23
					h-0.9v2.6h0.7c1.2,0,1.6-0.7,1.6-1.4S48.1,23,47.1,23 M46.9,31.5c-0.8,0-1.7,0-2.7,0v-9.9h3.2c2.1,0,3,1,3,2.3
					c0.1,0.9-0.5,1.8-1.3,2.1c1.1,0.2,1.9,1.2,1.8,2.3C51,30.1,49.8,31.5,46.9,31.5"/>
				<path id="Path_116" class="st9" d="M55.5,25.4c-0.9,0-1.4,0.6-1.4,2.3c0,2.1,0.5,2.6,1.5,2.6c0.9,0,1.4-0.6,1.4-2.3
					C57,25.9,56.4,25.4,55.5,25.4 M55.4,31.6c-2,0-3.2-1-3.2-3.7s1.4-4,3.5-4c2,0,3.2,1,3.2,3.7C58.9,30.4,57.5,31.6,55.4,31.6"/>
				<path id="Path_117" class="st9" d="M64.9,31.5l-0.1-0.8c-0.6,0.6-1.4,0.9-2.2,0.9c-1.5,0-2.2-0.9-2.2-3.3c0-0.9,0-2.6,0-4.2h1.9
					c0,1.5,0,3,0,3.8c0,1.7,0.3,2.1,1,2.1c0.5-0.1,1-0.3,1.4-0.6V24h1.9v7.3L64.9,31.5z"/>
				<path id="Path_118" class="st9" d="M76.4,31.5h-2.2L73,27.2l-0.2-0.9l0,0l-0.1,0.9l-1,4.3h-2.3l-1.9-7.3h2l1,4l0.3,1.2l0,0
					l0.2-1.1l0.9-4.2h2.2l1.1,4.2l0.2,1.1l0,0c0.5-1.7,0.8-3.5,1-5.3h1.8C77.9,26.6,77.2,29.1,76.4,31.5"/>
			</g>
		</g>
	</g>
</g>
<g id="Group_30_1_" transform="translate(-431.204 -784.186)">
	<g>
		<g id="Group_30-2_1_" transform="translate(431.204 784.186)">
			<path id="Path_87_1_" class="st1" d="M130.4,0.4c0,0,8.5-0.1,8.5,8.5v22.3c0,0,0,8.5-8.5,8.5H8.6c0,0-8.5,0-8.5-8.5V8.9
				c0,0,0-8.5,8.5-8.5H130.4z"/>
			<path id="Path_88_1_" class="st2" d="M104.3,0.4H76c8.8,10.4,14.6,26,16.1,39.3h23c6.1-7,10.4-15.2,12.8-24.2
				C121.3,8.7,113.2,3.5,104.3,0.4"/>
			<path id="Path_89_1_" class="st3" d="M104.3,0.4c8.9,3.1,17,8.3,23.5,15.2c1.2-5,2.1-10,2.4-15.2H104.3z"/>
			<path id="Path_90_1_" class="st4" d="M14.5,0.4c0,9.7,2.3,19.2,6.8,27.8c-9-0.3-14.7-3.7-21.2-9.1V8.9c0,0,0-8.5,8.5-8.5
				L14.5,0.4L14.5,0.4z"/>
			<path id="Path_91_1_" class="st5" d="M65.8,0.4h-7.6c-8,5-14.8,16.6-19.8,24.5c-2.9,4.6-5.2,9.6-6.7,14.8h39.5
				c0.4-2.8,0.6-5.6,0.6-8.4C71.7,22,69.6,9.1,65.8,0.4"/>
			<path id="Path_92_1_" class="st6" d="M39.4,23.2C44.3,15.4,50.7,5,58.2,0.4H14.5v0.1c0,9.6,2.3,19.1,6.8,27.7c0.5,0,0.9,0,1.4,0
				c5.4,0,10.7-1.1,15.7-3.2C38.7,24.4,39.1,23.8,39.4,23.2"/>
			<path id="Path_93_1_" class="st7" d="M92.1,39.7c-1.5-13.3-7.3-29-16.1-39.3H65.8c3.8,8.8,5.9,21.6,5.9,30.9
				c0,2.8-0.2,5.6-0.6,8.4L92.1,39.7z"/>
			<path id="Path_94_1_" class="st8" d="M28.5,39.7H8.6c0,0-8.5,0-8.5-8.5V19.1c6.5,5.4,12.1,8.7,21.2,9.1
				C23.4,32.4,25.4,36.1,28.5,39.7"/>
			<path id="Path_95_1_" class="st7" d="M22.7,28.2c-0.5,0-0.9,0-1.4,0c0.3,0.5,0.5,1,0.7,1.5l0,0c1.7,3.6,3.9,7,6.5,10.1h3.2
				c1.6-5.2,3.8-10.2,6.7-14.8C33.4,27.1,28.1,28.2,22.7,28.2"/>
			<path id="Path_96_1_" class="st3" d="M127.8,15.5c-2.3,8.9-6.7,17.2-12.8,24.2h15.3c8.5,0,8.5-8.5,8.5-8.5v-0.6
				C135,23.6,129.1,17.1,127.8,15.5"/>
			<path id="Rectangle_35_1_" class="st9" d="M8.9,4.9h24.8c1.7,0,3.1,1.4,3.1,3.1l0,0v24c0,1.7-1.4,3.1-3.1,3.1H8.9
				c-1.7,0-3.1-1.4-3.1-3.1c0,0,0,0,0,0v-24C5.7,6.3,7.2,4.9,8.9,4.9C8.9,4.9,8.9,4.9,8.9,4.9z"/>
			<path id="Path_97_1_" class="st10" d="M23.6,20.1c0,1.3-1,2.3-2.3,2.3s-2.3-1-2.3-2.3s1-2.3,2.3-2.3c0,0,0,0,0,0
				C22.6,17.7,23.6,18.8,23.6,20.1"/>
			<path id="Path_98_1_" class="st11" d="M30.7,18.3v-3.6h-3.6v-3.6h-3.6V7.5H20v7.2h3.6v3.6h3.6v3.6h-3.6V29h3.6v-3.6h3.6v-3.6h3.6
				v-3.6L30.7,18.3z"/>
			<path id="Path_99_1_" class="st12" d="M19.1,25.4v-3.6h-3.6v-3.6h3.6v-7.1h-3.6v3.6h-3.6v3.6H8.4v3.6h3.6v3.6h3.6V29h3.6v3.6h3.6
				v-7.2L19.1,25.4z"/>
			<path id="Rectangle_36_1_" class="st9" d="M8.9,4.9h24.8c1.7,0,3.1,1.4,3.1,3.1l0,0v24c0,1.7-1.4,3.1-3.1,3.1H8.9
				c-1.7,0-3.1-1.4-3.1-3.1c0,0,0,0,0,0v-24C5.7,6.3,7.2,4.9,8.9,4.9C8.9,4.9,8.9,4.9,8.9,4.9z"/>
			<path id="Path_100_1_" class="st10" d="M23.6,20.1c0,1.3-1,2.3-2.3,2.3s-2.3-1-2.3-2.3s1-2.3,2.3-2.3c0,0,0,0,0,0
				C22.6,17.7,23.6,18.8,23.6,20.1"/>
			<path id="Path_101_1_" class="st11" d="M30.7,18.3v-3.6h-3.6v-3.6h-3.6V7.5H20v7.2h3.6v3.6h3.6v3.6h-3.6V29h3.6v-3.6h3.6v-3.6
				h3.6v-3.6L30.7,18.3z"/>
			<path id="Path_102_1_" class="st12" d="M19.1,25.4v-3.6h-3.6v-3.6h3.6v-7.1h-3.6v3.6h-3.6v3.6H8.4v3.6h3.6v3.6h3.6V29h3.6v3.6
				h3.6v-7.2L19.1,25.4z"/>
			<path id="Path_103_1_" class="st9" d="M47.4,19.1c-2.5,0-3.7-1.6-3.7-4.9c0-3.5,1.4-5.3,3.9-5.3c1.1,0,2.1,0.6,2.6,1.6l-0.9,0.9
				c-0.3-0.5-0.9-0.9-1.5-0.9c-1.3,0-2.1,1.2-2.1,3.4c0,2.6,0.7,3.6,2,3.6c0.7,0,1.4-0.4,1.8-0.9l0.8,1
				C49.7,18.5,48.6,19.1,47.4,19.1"/>
			<path id="Path_104_1_" class="st9" d="M54.4,12.9c-0.9,0-1.4,0.6-1.4,2.3c0,2.1,0.5,2.6,1.5,2.6c0.9,0,1.4-0.6,1.4-2.3
				C55.9,13.4,55.4,12.9,54.4,12.9 M54.3,19.1c-2,0-3.2-1-3.2-3.7s1.4-4,3.5-4c2,0,3.2,1,3.2,3.7C57.8,17.8,56.5,19.1,54.3,19.1"/>
			<path id="Path_105_1_" class="st9" d="M65.4,19h-1.9c0-1.5,0-3,0-3.8c0-1.7-0.3-2.1-1-2.1c-0.5,0.1-1,0.3-1.4,0.6V19h-1.9v-7.3
				h1.5l0.1,0.8c0.6-0.6,1.4-0.9,2.2-0.9c1.5,0,2.2,0.9,2.2,3.3C65.4,15.7,65.4,17.3,65.4,19"/>
			<path id="Path_106_1_" class="st9" d="M71,10c-0.3-0.1-0.6-0.2-0.9-0.2c-0.6,0-0.8,0.3-0.8,0.9v0.9h1.3v1.3h-1.3v6h-1.9v-6h-0.9
				v-1.3h0.9v-0.9c0-1.4,0.6-2.3,2-2.3c0.6,0,1.2,0.2,1.8,0.5L71,10z"/>
			<path id="Path_107_1_" class="st9" d="M75.7,14.5c0-1.2-0.4-1.7-1.2-1.7c-0.8,0-1.2,0.7-1.3,1.8L75.7,14.5L75.7,14.5z M73.2,15.7
				L73.2,15.7c0,1.4,0.6,2,1.6,2c0.8,0,1.6-0.2,2.4-0.4l0.3,1.1c-0.9,0.5-2,0.8-3,0.8c-1.9,0-3.2-1-3.2-3.6c0-2.6,1.3-4,3.3-4
				c1.9,0,3.1,1.1,2.9,4.2L73.2,15.7z"/>
			<path id="Path_108_1_" class="st9" d="M83.1,13c-0.3-0.1-0.6-0.1-0.9-0.1c-1,0-1.6,0.8-1.6,2.5c0,1.5,0.5,2.3,1.2,2.3
				c0.5-0.1,0.9-0.3,1.3-0.6L83.1,13z M83.5,19l-0.1-0.7c-0.6,0.5-1.3,0.9-2.1,0.9c-1.7,0-2.6-1.6-2.6-3.5c0-3,1.6-4.1,3.6-4.1
				c0.3,0,0.6,0,0.8,0V8.6H85V19L83.5,19z"/>
			<path id="Path_109_1_" class="st9" d="M90.9,14.5c0-1.2-0.4-1.7-1.2-1.7c-0.8,0-1.2,0.7-1.3,1.8L90.9,14.5L90.9,14.5z M88.4,15.7
				L88.4,15.7c0,1.4,0.6,2,1.6,2c0.8,0,1.6-0.2,2.4-0.4l0.3,1.1c-0.9,0.5-2,0.8-3,0.8c-1.9,0-3.2-1-3.2-3.6c0-2.6,1.3-4,3.3-4
				c1.9,0,3.1,1.1,2.9,4.2L88.4,15.7z"/>
			<path id="Path_110_1_" class="st9" d="M98.3,13.3c-0.2-0.1-0.4-0.1-0.6-0.1c-0.4,0-0.8,0.3-1.4,1.1V19h-1.9v-7.3h1.5l0.1,1.1
				c0.7-1,1.2-1.3,1.8-1.3c0.2,0,0.5,0.1,0.7,0.2L98.3,13.3z"/>
			<path id="Path_111_1_" class="st9" d="M103.1,15.6h-0.6c-1.4,0-1.8,0.5-1.8,1.2c-0.1,0.5,0.3,0.9,0.8,1c0.1,0,0.1,0,0.2,0
				c0.5,0,1-0.3,1.4-0.6L103.1,15.6z M103.5,19l-0.1-0.7c-0.6,0.6-1.4,0.9-2.2,0.9c-1.5,0-2.3-0.7-2.3-2.1c0-1.5,1.2-2.5,3.8-2.5
				h0.5v-0.6c0-0.7-0.4-1.1-1.4-1.1c-0.8,0-1.5,0.2-2.2,0.4l-0.2-1.1c0.9-0.4,1.9-0.6,3-0.7c1.9,0,2.7,0.9,2.7,2.3v5.2L103.5,19z"/>
			<path id="Path_112_1_" class="st9" d="M108.8,19.1c-1.4,0-1.9-0.5-1.9-1.9v-4.2H106v-1.3h1c0.2-0.7,0.3-1.3,0.5-2.1h1.4v2.1h1.6
				v1.3h-1.6v3.8c0,0.7,0.2,1,0.7,1c0.3,0,0.7-0.1,1-0.2l0.1,1.1C110,18.9,109.4,19.1,108.8,19.1"/>
			<path id="Path_113_1_" class="st9" d="M111.9,11.6h1.9V19h-1.9V11.6z M112.8,10.7c-0.9,0-1.1-0.2-1.1-1s0.2-1,1.1-1
				s1.1,0.2,1.1,1C113.9,10.4,113.7,10.7,112.8,10.7"/>
			<path id="Path_114_1_" class="st9" d="M119.7,14.5c0-1.2-0.4-1.7-1.2-1.7s-1.2,0.7-1.3,1.8L119.7,14.5L119.7,14.5z M117.2,15.7
				L117.2,15.7c0,1.4,0.6,2,1.6,2c0.8,0,1.6-0.2,2.4-0.4l0.3,1.1c-0.9,0.5-2,0.8-3,0.8c-1.9,0-3.2-1-3.2-3.6c0-2.6,1.3-4,3.3-4
				c1.9,0,3.1,1.1,2.9,4.2L117.2,15.7z"/>
			<path id="Path_115_1_" class="st9" d="M47,27h-0.9V30c0.3,0,0.7,0.1,1,0.1c1.2,0,1.7-0.7,1.7-1.6C48.9,27.6,48.4,27,47,27
				 M47.1,23h-0.9v2.6h0.7c1.2,0,1.6-0.7,1.6-1.4S48.1,23,47.1,23 M46.9,31.5c-0.8,0-1.7,0-2.7,0v-9.9h3.2c2.1,0,3,1,3,2.3
				c0.1,0.9-0.5,1.8-1.3,2.1c1.1,0.2,1.9,1.2,1.8,2.3C51,30.1,49.8,31.5,46.9,31.5"/>
			<path id="Path_116_1_" class="st9" d="M55.5,25.4c-0.9,0-1.4,0.6-1.4,2.3c0,2.1,0.5,2.6,1.5,2.6c0.9,0,1.4-0.6,1.4-2.3
				C57,25.9,56.4,25.4,55.5,25.4 M55.4,31.6c-2,0-3.2-1-3.2-3.7s1.4-4,3.5-4c2,0,3.2,1,3.2,3.7C58.9,30.4,57.5,31.6,55.4,31.6"/>
			<path id="Path_117_1_" class="st9" d="M64.9,31.5l-0.1-0.8c-0.6,0.6-1.4,0.9-2.2,0.9c-1.5,0-2.2-0.9-2.2-3.3c0-0.9,0-2.6,0-4.2
				h1.9c0,1.5,0,3,0,3.8c0,1.7,0.3,2.1,1,2.1c0.5-0.1,1-0.3,1.4-0.6v-5.4h1.9v7.3L64.9,31.5z"/>
			<path id="Path_118_1_" class="st9" d="M76.4,31.5h-2.2L73,27.2l-0.2-0.9h0l-0.1,0.9l-1,4.3h-2.3l-1.9-7.3h2l1,4l0.3,1.2h0
				l0.2-1.1l0.9-4.2h2.2l1.1,4.2l0.2,1.1h0c0.5-1.7,0.8-3.5,1-5.3h1.8C77.9,26.6,77.2,29.1,76.4,31.5"/>
		</g>
	</g>
</g>
</svg>
