<?xml version="1.0" encoding="utf-8"?>
<!-- Generator: Adobe Illustrator 23.0.3, SVG Export Plug-In . SVG Version: 6.00 Build 0)  -->
<svg version="1.1" id="Layer_1" xmlns="http://www.w3.org/2000/svg" xmlns:xlink="http://www.w3.org/1999/xlink" x="0px" y="0px"
	 viewBox="0 0 200 59" style="enable-background:new 0 0 200 59;" xml:space="preserve">
<style type="text/css">
	.st0{fill:#F7505E;}
</style>
<g id="Group_20" transform="translate(813 -2526)">
	<g id="Group_19" transform="translate(-813 2526)">
		<g id="Group_18" transform="translate(65.482)">
			<path id="Path_39" class="st0" d="M1.9,3.5c0.4-0.7,1.2-1.2,2-1.1c1.7,0,2.7,1.3,2.7,3.4S5.6,9.1,3.9,9.1c-0.8,0-1.6-0.4-2-1.1h0
				v1H1.1v-9.1h0.8L1.9,3.5L1.9,3.5z M1.8,5.7c0,1.7,0.8,2.7,2,2.7c1.2,0,2-1.1,2-2.7S5.1,3,3.8,3C2.6,3,1.8,4.1,1.8,5.7z"/>
			<path id="Path_40" class="st0" d="M15,5.7c0,2.1-1.1,3.4-3,3.4s-3-1.3-3-3.4s1.1-3.4,3-3.4S15,3.6,15,5.7z M9.9,5.7
				c0,1.7,0.8,2.7,2.1,2.7s2.1-1,2.1-2.7S13.4,3,12.1,3S9.9,4.1,9.9,5.7L9.9,5.7z"/>
			<path id="Path_41" class="st0" d="M17.8,6.4V2.5h0.8v3.9c0,1.5,0.6,2,1.7,2c1,0,1.9-0.9,1.9-1.9c0-0.1,0-0.1,0-0.2V2.5h0.8V9
				h-0.8V8.1h0c-0.5,0.7-1.2,1.1-2,1C18.6,9.1,17.8,8.2,17.8,6.4z"/>
			<path id="Path_42" class="st0" d="M31.7,9l-0.8-2.9c-0.3-1-0.5-1.9-0.8-2.8h0c-0.3,1-0.5,1.9-0.8,2.8L28.4,9h-1.1l-1.9-6.5h0.8
				L27,5.3c0.3,1,0.6,2,0.8,3h0l0.8-2.9l0.8-2.9h1.2l0.8,2.9l0.8,2.9h0c0.3-1,0.5-2,0.8-3l0.8-2.8h0.8L32.8,9H31.7z"/>
			<path id="Path_43" class="st0" d="M42.8,5.7c0,2.1-1.1,3.4-2.7,3.4c-0.8,0-1.6-0.4-2-1.1h0v3.3h-0.8V2.5H38v1h0
				c0.4-0.7,1.2-1.2,2-1.1C41.7,2.3,42.8,3.7,42.8,5.7z M37.9,5.7c0,1.7,0.8,2.7,2,2.7c1.2,0,2-1.1,2-2.7S41.1,3,39.9,3
				C38.7,3,37.9,4.1,37.9,5.7L37.9,5.7z"/>
			<path id="Path_44" class="st0" d="M48.8,2.5v0.8c-0.1,0-0.3,0-0.4,0c-1.3,0-2,0.8-2,2.4V9h-0.8V2.5h0.8v1h0
				c0.4-0.7,1.2-1.1,2-1.1C48.5,2.5,48.7,2.5,48.8,2.5z"/>
			<path id="Path_45" class="st0" d="M56.6,5.7c0,2.1-1.1,3.4-3,3.4s-3-1.3-3-3.4s1.1-3.4,3-3.4S56.6,3.6,56.6,5.7z M51.5,5.7
				c0,1.7,0.8,2.7,2.1,2.7s2.1-1,2.1-2.7S55,3,53.6,3S51.5,4.1,51.5,5.7L51.5,5.7z"/>
			<path id="Path_46" class="st0" d="M68.1,5v4h-0.8V5c0-1.5-0.5-2-1.5-2c-1,0-1.7,0.8-1.7,2.1V9h-0.8V4.8c0-1.1-0.5-1.8-1.5-1.8
				c-1,0-1.7,0.9-1.7,2.2V9h-0.8V2.5h0.8v0.8h0c0.4-0.6,1.1-1,1.8-1c0.9,0,1.6,0.5,1.9,1.3c0.4-0.8,1.2-1.3,2.1-1.3
				C67.4,2.4,68.1,3.2,68.1,5z"/>
			<path id="Path_47" class="st0" d="M76.8,5.7c0,2.1-1.1,3.4-3,3.4s-3-1.3-3-3.4s1.1-3.4,3-3.4S76.8,3.6,76.8,5.7z M71.7,5.7
				c0,1.7,0.8,2.7,2.1,2.7s2.1-1,2.1-2.7S75.2,3,73.8,3S71.7,4.1,71.7,5.7L71.7,5.7z"/>
			<path id="Path_48" class="st0" d="M82,8.3V9C81.8,9,81.6,9,81.4,9c-1.1,0-1.6-0.5-1.6-1.8V3.2h-1.2V2.5h1.2V1h0.8v1.5h1.3v0.7
				h-1.3v4.1c0,0.8,0.3,1.1,0.9,1.1C81.7,8.3,81.9,8.3,82,8.3z"/>
			<path id="Path_49" class="st0" d="M89.9,5.7c0,2.1-1.1,3.4-3,3.4s-3-1.3-3-3.4s1.1-3.4,3-3.4S89.9,3.6,89.9,5.7z M84.8,5.7
				c0,1.7,0.8,2.7,2.1,2.7s2.1-1,2.1-2.7S88.3,3,86.9,3S84.8,4.1,84.8,5.7L84.8,5.7z"/>
			<path id="Path_50" class="st0" d="M95.9,2.5v0.8c-0.1,0-0.3,0-0.4,0c-1.3,0-2,0.8-2,2.4V9h-0.8V2.5h0.8v1h0
				c0.4-0.7,1.2-1.1,2-1.1C95.6,2.5,95.8,2.5,95.9,2.5z"/>
			<path id="Path_51" class="st0" d="M5.7,17.6v2.6c0,0.5,0,1.1,0.1,1.6H5.1c-0.1-0.3-0.1-0.7-0.1-1h0c-0.5,0.8-1.4,1.2-2.3,1.1
				c-1.1,0.1-2-0.6-2.2-1.7c0-0.1,0-0.1,0-0.2c0-1.1,0.6-1.7,2.5-2c0.6-0.1,1.4-0.2,2-0.2v-0.3c0.1-0.8-0.5-1.6-1.3-1.7
				c-0.1,0-0.2,0-0.4,0c-0.8-0.1-1.6,0.5-1.7,1.3c0,0.1,0,0.1,0,0.2H0.8C0.8,16,1.9,15,3.2,15.1c0,0,0.1,0,0.1,0
				c1.2-0.1,2.3,0.8,2.4,2C5.7,17.3,5.7,17.4,5.7,17.6z M5,18.5c-0.5,0-1.3,0.1-1.9,0.2c-1.3,0.2-1.7,0.6-1.7,1.3
				c0,0.8,0.6,1.3,1.5,1.3c1.1,0,2.1-0.8,2.1-2c0-0.1,0-0.2,0-0.3L5,18.5L5,18.5z"/>
			<path id="Path_52" class="st0" d="M8.9,21.8v-9.1h0.8v9.1H8.9z"/>
			<path id="Path_53" class="st0" d="M17.2,16.2L17.2,16.2l0-1H18v6.1c0,1.9-0.9,2.8-2.7,2.8c-1.6,0-2.6-0.8-2.6-2h0.8
				c0,0.9,0.7,1.4,1.8,1.4c1.3,0,1.9-0.7,1.9-2.2v-0.8h0c-0.4,0.7-1.2,1.1-2,1.1c-1.7,0-2.8-1.3-2.8-3.3s1.1-3.3,2.8-3.3
				C16.1,15.1,16.8,15.5,17.2,16.2z M13.3,18.4c0,1.6,0.8,2.6,2,2.6c1.3,0,2-1,2-2.6s-0.8-2.6-2-2.6C14,15.8,13.3,16.8,13.3,18.4
				L13.3,18.4z"/>
			<path id="Path_54" class="st0" d="M25.7,19.8h0.8c-0.2,1.3-1.4,2.2-2.7,2.1c-1.9,0-3-1.4-3-3.5c0-1.9,1.1-3.3,2.9-3.3
				c1.4-0.1,2.6,0.9,2.7,2.3c0.1,0.4,0.1,0.8,0.1,1.3h-5c0,1.7,1,2.6,2.2,2.6C24.7,21.3,25.5,20.7,25.7,19.8z M21.6,18h4.2
				c0.1-1.2-0.8-2.1-2-2.2c-1.2-0.1-2.1,0.8-2.2,2C21.6,17.8,21.6,17.9,21.6,18z"/>
			<path id="Path_55" class="st0" d="M38.1,17.7v4h-0.8v-4c0-1.5-0.5-2-1.5-2c-1,0-1.7,0.8-1.7,2.1v3.8h-0.8v-4.2
				c0-1.1-0.5-1.8-1.5-1.8c-1,0-1.7,0.9-1.7,2.2v3.7h-0.8v-6.5h0.8v0.8h0c0.4-0.6,1.1-1,1.8-1c0.9,0,1.6,0.5,1.9,1.3
				c0.4-0.8,1.2-1.3,2.1-1.3C37.4,15.1,38.1,16,38.1,17.7z"/>
			<path id="Path_56" class="st0" d="M45.8,19.8h0.8c-0.2,1.3-1.4,2.2-2.7,2.1c-1.9,0-3-1.4-3-3.5c0-1.9,1.1-3.3,2.9-3.3
				c1.4-0.1,2.6,0.9,2.7,2.3c0.1,0.4,0.1,0.8,0.1,1.3h-5c0,1.7,1,2.6,2.2,2.6C44.7,21.3,45.6,20.7,45.8,19.8z M41.7,18h4.2
				c0.1-1.2-0.8-2.1-2-2.2c-1.2-0.1-2.1,0.8-2.2,2C41.7,17.8,41.7,17.9,41.7,18z"/>
			<path id="Path_57" class="st0" d="M54.6,17.8v3.9h-0.8v-3.9c0-1.5-0.6-2-1.7-2c-1,0-1.9,0.9-1.9,1.9c0,0.1,0,0.1,0,0.2v3.8h-0.8
				v-6.5h0.8v0.9h0c0.5-0.7,1.2-1,2-1C53.8,15.1,54.6,16,54.6,17.8z"/>
			<path id="Path_58" class="st0" d="M62.2,19.8H63c-0.2,1.3-1.4,2.2-2.7,2.1c-1.9,0-3-1.4-3-3.5c0-1.9,1.1-3.3,2.9-3.3
				c1.4-0.1,2.6,0.9,2.7,2.3c0.1,0.4,0.1,0.8,0.1,1.3h-5c0,1.7,1,2.6,2.2,2.6C61.2,21.3,62,20.7,62.2,19.8z M58.1,18h4.2
				c0.1-1.2-0.8-2.1-2-2.2c-1.2-0.1-2.1,0.8-2.2,2C58.1,17.8,58.1,17.9,58.1,18z"/>
			<path id="Path_59" class="st0" d="M75.3,17.6v2.6c0,0.5,0,1.1,0.1,1.6h-0.7c-0.1-0.3-0.1-0.7-0.1-1h0c-0.5,0.8-1.4,1.2-2.3,1.1
				c-1.1,0.1-2-0.6-2.2-1.7c0-0.1,0-0.1,0-0.2c0-1.1,0.6-1.7,2.5-2c0.6-0.1,1.4-0.2,2-0.2v-0.3c0.1-0.8-0.5-1.6-1.3-1.7
				c-0.1,0-0.2,0-0.4,0c-0.8-0.1-1.6,0.5-1.7,1.3c0,0.1,0,0.1,0,0.2h-0.8c0.1-1.2,1.1-2.2,2.4-2.1c0,0,0.1,0,0.1,0
				c1.2-0.1,2.3,0.8,2.4,2C75.4,17.3,75.4,17.4,75.3,17.6z M74.6,18.5c-0.5,0-1.3,0.1-1.9,0.2C71.4,18.9,71,19.3,71,20
				c0,0.8,0.6,1.3,1.5,1.3c1.1,0,2.1-0.8,2.1-1.9c0-0.1,0-0.2,0-0.3L74.6,18.5L74.6,18.5z"/>
			<path id="Path_60" class="st0" d="M83.2,17.6v2.6c0,0.5,0,1.1,0.1,1.6h-0.7c-0.1-0.3-0.1-0.7-0.1-1h0c-0.5,0.8-1.4,1.2-2.3,1.1
				c-1.1,0.1-2-0.6-2.2-1.7c0-0.1,0-0.1,0-0.2c0-1.1,0.6-1.7,2.5-2c0.6-0.1,1.4-0.2,2-0.2v-0.3c0.1-0.8-0.5-1.6-1.3-1.7
				c-0.1,0-0.2,0-0.4,0c-0.8-0.1-1.6,0.5-1.7,1.3c0,0.1,0,0.1,0,0.2h-0.8c0.1-1.2,1.1-2.2,2.4-2.1c0,0,0.1,0,0.1,0
				c1.2-0.1,2.3,0.8,2.4,2C83.2,17.3,83.2,17.4,83.2,17.6z M82.4,18.5c-0.5,0-1.3,0.1-1.9,0.2c-1.3,0.2-1.7,0.6-1.7,1.3
				c0,0.8,0.6,1.3,1.5,1.3c1.1,0,2.1-0.8,2.1-2c0-0.1,0-0.2,0-0.3L82.4,18.5L82.4,18.5z"/>
			<path id="Path_61" class="st0" d="M91.5,17.8v3.9h-0.8v-3.9c0-1.5-0.6-2-1.7-2c-1,0-1.9,0.9-1.9,1.9c0,0.1,0,0.1,0,0.2v3.8h-0.8
				v-6.5h0.8v0.9h0c0.5-0.7,1.2-1,2-1C90.7,15.1,91.5,16,91.5,17.8z"/>
			<path id="Path_62" class="st0" d="M99.8,17.8v3.9H99v-3.9c0-1.5-0.6-2-1.7-2c-1,0-1.9,0.9-1.9,1.9c0,0.1,0,0.1,0,0.2v3.8h-0.8
				v-6.5h0.8v0.9h0c0.5-0.7,1.2-1,2-1C98.9,15.1,99.8,16,99.8,17.8z"/>
			<path id="Path_63" class="st0" d="M107.4,19.8h0.8c-0.2,1.3-1.4,2.2-2.7,2.1c-1.9,0-3-1.4-3-3.5c0-1.9,1.1-3.3,2.9-3.3
				c1.4-0.1,2.6,0.9,2.7,2.3c0.1,0.4,0.1,0.8,0.1,1.3h-5c0,1.7,1,2.6,2.2,2.6C106.4,21.3,107.2,20.7,107.4,19.8z M103.3,18h4.2
				c0.1-1.2-0.8-2.1-2-2.2c-1.2-0.1-2.1,0.8-2.2,2C103.3,17.8,103.3,17.9,103.3,18z"/>
			<path id="Path_64" class="st0" d="M119.8,17.7v4H119v-4c0-1.5-0.5-2-1.5-2c-1,0-1.7,0.8-1.7,2.1v3.8H115v-4.2
				c0-1.1-0.5-1.8-1.5-1.8c-1,0-1.7,0.9-1.7,2.2v3.7h-0.8v-6.5h0.8v0.8h0c0.4-0.6,1.1-1,1.8-1c0.9,0,1.6,0.5,1.9,1.3
				c0.4-0.8,1.2-1.3,2.1-1.3C119,15.1,119.8,16,119.8,17.7z"/>
			<path id="Path_65" class="st0" d="M127.4,19.8h0.8c-0.2,1.3-1.4,2.2-2.7,2.1c-1.9,0-3-1.4-3-3.5c0-1.9,1.1-3.3,2.9-3.3
				c1.4-0.1,2.6,0.9,2.7,2.3c0.1,0.4,0.1,0.8,0.1,1.3h-5c0,1.7,1,2.6,2.2,2.6C126.4,21.3,127.2,20.7,127.4,19.8z M123.4,18h4.2
				c0.1-1.2-0.8-2.1-2-2.2c-1.2-0.1-2.1,0.8-2.2,2C123.4,17.8,123.4,17.9,123.4,18z"/>
			<path id="Path_66" class="st0" d="M134.3,15.3V16c-0.1,0-0.3,0-0.4,0c-1.3,0-2,0.8-2,2.4v3.4h-0.8v-6.5h0.8v1h0
				c0.4-0.7,1.2-1.1,2-1.1C134,15.2,134.2,15.2,134.3,15.3z"/>
			<path id="Path_67" class="st0" d="M14.3,41.6v-6.7c0-1.7,0-3.4,0.1-5h0c-0.4,1.6-0.8,3.3-1.3,5l-1.9,6.7H7.2l-1.9-6.7
				c-0.5-1.6-0.9-3.3-1.3-5h0C4,31.5,4,33.2,4,34.9v6.7H0.9V27.9h5.3L8,34c0.5,1.7,0.9,3.4,1.2,5h0c0.3-1.7,0.7-3.4,1.2-5l1.8-6.1
				h5.3v13.6L14.3,41.6z"/>
			<path id="Path_68" class="st0" d="M25.1,38.7l-0.9,2.9h-3.5l4.7-13.6h4.3l4.7,13.6h-3.5l-0.9-2.9H25.1z M29,35
				c-0.5-1.6-1-3.3-1.4-5h0c-0.4,1.6-0.9,3.3-1.3,5L26,35.9h3.3L29,35z"/>
			<path id="Path_69" class="st0" d="M42.7,30.7v10.8h-3.3V30.7h-4.2v-2.8h11.7v2.8H42.7z"/>
			<path id="Path_70" class="st0" d="M57.2,30.7v10.8h-3.3V30.7h-4.2v-2.8h11.7v2.8H57.2z"/>
			<path id="Path_71" class="st0" d="M73.2,41.6v-5.7h-5v5.7h-3.3V27.9h3.3v5.2h5v-5.2h3.3v13.6L73.2,41.6z"/>
			<path id="Path_72" class="st0" d="M81.2,41.6V27.9h3.3v13.6L81.2,41.6z"/>
			<path id="Path_73" class="st0" d="M92.2,38.7l-0.9,2.9h-3.5l4.7-13.6h4.3l4.7,13.6H98l-0.9-2.9H92.2z M96.1,35
				c-0.5-1.6-1-3.3-1.4-5h0c-0.4,1.6-0.9,3.3-1.3,5l-0.3,0.9h3.3L96.1,35z"/>
			<path id="Path_74" class="st0" d="M114.8,32.1h-3.4c0.1-1-0.6-1.8-1.6-1.9c-0.1,0-0.3,0-0.4,0c-1.1,0-1.8,0.5-1.8,1.3
				c0,0.9,0.7,1.2,2.7,1.7c2.6,0.7,4.9,1.4,4.9,4.3c0,2.7-2.2,4.4-5.6,4.4c-3.5,0-5.7-1.7-5.7-4.8h3.5c0,1.4,0.7,2.1,2.3,2.1
				c1.2,0,2-0.6,2-1.4c0-1-0.8-1.2-2.6-1.7c-2.6-0.7-5-1.3-5-4.3c0-2.5,2.1-4.2,5.3-4.2C112.8,27.6,114.8,29.1,114.8,32.1z"/>
			<path id="Path_75" class="st0" d="M7.7,48v10.8H4.4V48H0.2v-2.8h11.7V48H7.7z"/>
			<path id="Path_76" class="st0" d="M17,55.9l-0.9,2.9h-3.5l4.7-13.6h4.3l4.7,13.6h-3.5L22,55.9H17z M20.9,52.3
				c-0.5-1.6-1-3.3-1.4-5h0c-0.4,1.6-0.9,3.3-1.3,5l-0.3,0.9h3.3L20.9,52.3z"/>
			<path id="Path_77" class="st0" d="M39.2,56v2.8h-9.5V45.2H33V56H39.2z"/>
			<path id="Path_78" class="st0" d="M52.1,56v2.8h-9.5V45.2h3.3V56H52.1z"/>
			<path id="Path_79" class="st0" d="M67.9,52c0,4.4-2.5,7.1-6.6,7.1c-4.1,0-6.6-2.7-6.6-7.1s2.5-7.1,6.6-7.1
				C65.4,44.8,67.9,47.6,67.9,52z M58.2,52c0,2.7,1.2,4.3,3.1,4.3c2,0,3.1-1.6,3.1-4.3s-1.2-4.3-3.1-4.3
				C59.3,47.7,58.2,49.3,58.2,52z"/>
			<path id="Path_80" class="st0" d="M75.2,47.9v2.6h5.9v2.7h-5.9V56h6.5v2.8h-9.8V45.2h9.6v2.8L75.2,47.9L75.2,47.9z"/>
			<path id="Path_81" class="st0" d="M93.7,58.8l-2.4-5.4c-0.8-1.8-1.6-3.6-2.2-5.5h0c0.1,1.9,0.2,3.8,0.2,5.7v5.1H86V45.2h4.8
				l2.4,5.4c0.8,1.8,1.5,3.6,2.2,5.5h0c-0.1-1.9-0.2-3.8-0.2-5.7v-5.1h3.2v13.6L93.7,58.8L93.7,58.8z"/>
		</g>
		<path id="Path_82" class="st0" d="M26.2,5.5l-8,6.9h8v5.2H12.1l-5.9,5.1h20v5.2h-26V33h26v5.2h-26v5.1h26v5.2h-26v5.1h26v5.2h26
			V27.9L26.2,5.5z"/>
	</g>
</g>
</svg>
