<?xml version="1.0" encoding="utf-8"?>
<!-- Generator: Adobe Illustrator 23.0.2, SVG Export Plug-In . SVG Version: 6.00 Build 0)  -->
<svg version="1.1" id="Layer_1" xmlns="http://www.w3.org/2000/svg" xmlns:xlink="http://www.w3.org/1999/xlink" x="0px" y="0px"
	 viewBox="0 0 143 26" style="enable-background:new 0 0 143 26;" xml:space="preserve">
<style type="text/css">
	.st0{fill:#A50016;}
	.st1{fill:#505153;}
</style>
<g id="Group_31" transform="translate(2260.68 -1972)">
	<g id="Group_33" transform="translate(-3320.68 290)">
		<g id="Group_32" transform="translate(1060 1682)">
			<path id="Path_119" class="st0" d="M27.7,2.2h7.9c3.8,0,5.5,2.1,5.5,5.2c0,2.2-0.9,4.2-3.2,4.7v0.1c2.7,0.3,3.7,2.6,3.7,4.8
				c0,3.6-1.7,6.2-6.1,6.2h-7.9V2.2z M32.9,10.4h1.3c1.1,0,1.7-1,1.7-2.1c0-1.2-0.6-2.2-1.7-2.2h-1.3V10.4z M32.9,19.3h1.5
				c1,0,1.9-0.9,1.9-2.6c0-1.6-0.9-2.5-1.9-2.5h-1.5V19.3z"/>
			<path id="Path_120" class="st0" d="M50.1,1.8c5.4,0,7.2,3.1,7.2,10.9s-1.8,10.9-7.2,10.9s-7.2-3.1-7.2-10.9S44.8,1.8,50.1,1.8
				 M50.1,19.9c1.6,0,1.8-1.5,1.8-7.2s-0.2-7.2-1.8-7.2s-1.8,1.5-1.8,7.2S48.5,19.9,50.1,19.9"/>
			<path id="Path_121" class="st0" d="M64.1,2.2v15.1c0,2,0.6,2.6,1.6,2.6s1.6-0.5,1.6-2.6V2.2h5.2V16c0,5.9-2.4,7.6-6.8,7.6
				s-6.8-1.8-6.8-7.6V2.2H64.1z"/>
			<path id="Path_122" class="st0" d="M81.9,2.2h4.7l2.1,14.5h0.1l1.4-14.5h5.1l-3.4,21h-5.8L84.3,9.1h-0.1l-1.8,14.1h-5.8l-3.4-21
				h5.1L80,16.8H80L81.9,2.2z"/>
			<path id="Path_123" class="st1" d="M96.5,2.2H99V17c0,3.1,1,4.5,3.4,4.5c2.7,0,3.4-1.6,3.4-4.5V2.2h2.5V17c0,4-2,6.6-5.9,6.6
				c-4,0-5.9-2.3-5.9-6.6L96.5,2.2z"/>
			<path id="Path_124" class="st1" d="M111.2,2.2h3.2l6.7,17.5h0.1V2.2h2.5v21h-3.4l-6.5-17h-0.1v17h-2.5L111.2,2.2z"/>
			<rect id="Rectangle_38" x="126.7" y="2.2" class="st1" width="2.5" height="21"/>
			<path id="Path_125" class="st1" d="M132.3,2.2v21H143v-2.3h-8.3v-7.5h7.5v-2.3h-7.5V4.5h7.9V2.2L132.3,2.2z"/>
			<path id="Path_126" class="st0" d="M22.4,6.5L11.2,0.1L0,6.5v13l11.2,6.5l11.2-6.5V6.5z M20.5,18.4l-8.4,4.8v-9.7l8.4-4.8V18.4z
				 M11.2,2.2l8.4,4.8l-8.4,4.8L2.8,7.1L11.2,2.2z M10.3,13.5v9.7l-8.4-4.8V8.7L10.3,13.5z"/>
		</g>
	</g>
</g>
</svg>
